<?xml version="1.0" encoding="UTF-8" standalone="no"?>
<!-- Created with Inkscape (http://www.inkscape.org/) -->

<svg
   width="227.77596mm"
   height="73.361145mm"
   viewBox="0 0 860.88551 277.27049"
   version="1.1"
   id="svg1"
   inkscape:version="1.3.2 (091e20e, 2023-11-25, custom)"
   sodipodi:docname="Breathfang Blender GeoNode Pack Logo BG Universal.svg"
   inkscape:export-filename="Breathfang Blender GeoNode Pack Logo Universal BG Color.png"
   inkscape:export-xdpi="96"
   inkscape:export-ydpi="96"
   xmlns:inkscape="http://www.inkscape.org/namespaces/inkscape"
   xmlns:sodipodi="http://sodipodi.sourceforge.net/DTD/sodipodi-0.dtd"
   xmlns="http://www.w3.org/2000/svg"
   xmlns:svg="http://www.w3.org/2000/svg">
  <sodipodi:namedview
     id="namedview1"
     pagecolor="#505050"
     bordercolor="#eeeeee"
     borderopacity="1"
     inkscape:showpageshadow="0"
     inkscape:pageopacity="0"
     inkscape:pagecheckerboard="0"
     inkscape:deskcolor="#505050"
     inkscape:document-units="mm"
     inkscape:zoom="1.0016369"
     inkscape:cx="512.66083"
     inkscape:cy="46.424009"
     inkscape:window-width="1920"
     inkscape:window-height="991"
     inkscape:window-x="-9"
     inkscape:window-y="-9"
     inkscape:window-maximized="1"
     inkscape:current-layer="layer1" />
  <defs
     id="defs1" />
  <g
     inkscape:label="Layer 1"
     inkscape:groupmode="layer"
     id="layer1"
     transform="translate(-276.39682,-165.62838)">
    <path
       id="rect1"
       style="fill:#ffffff;fill-rule:evenodd;stroke-width:3.77953;stroke-linecap:square;stroke-linejoin:bevel;stroke-miterlimit:2.9;paint-order:markers stroke fill"
       d="m 341.96957,214.41071 h 769.74003 l -40,179.70584 H 301.96957 Z"
       sodipodi:nodetypes="ccccc" />
    <text
       xml:space="preserve"
       style="font-size:96px;font-family:'Mina is gone';-inkscape-font-specification:'Mina is gone';fill:#000000;fill-rule:evenodd;stroke:#000000;stroke-width:18.1;stroke-linecap:square;stroke-linejoin:round;stroke-miterlimit:2.9;paint-order:fill markers stroke"
       x="525.13647"
       y="325.94455"
       id="text1"><tspan
         sodipodi:role="line"
         x="525.13647"
         y="325.94455"
         style="font-size:96px;fill:#000000;stroke:none"
         id="tspan2">Breathfang's</tspan></text>
    <text
       xml:space="preserve"
       style="font-size:29.1541px;font-family:'Mina is gone';-inkscape-font-specification:'Mina is gone';fill:#000000;fill-rule:evenodd;stroke:none;stroke-width:17.9894;stroke-linecap:square;stroke-linejoin:round;stroke-miterlimit:2.9;paint-order:fill markers stroke"
       x="525.7298"
       y="361.6915"
       id="text3"><tspan
         sodipodi:role="line"
         id="tspan3"
         x="525.7298"
         y="361.6915"
         style="font-style:normal;font-variant:normal;font-weight:normal;font-stretch:normal;font-size:29.1541px;font-family:'League Spartan';-inkscape-font-specification:'League Spartan';fill:#000000;stroke-width:17.9894">GEOMETRY NODES TOOLSET PACK</tspan></text>
    <path
       id="path3"
       style="fill:#000000;fill-rule:evenodd;stroke:none;stroke-width:2.04106;stroke-linecap:square;stroke-linejoin:bevel;stroke-miterlimit:2.9;stroke-dasharray:none;stroke-opacity:1;paint-order:markers stroke fill"
       d="m 493.28891,222.96605 c -5.55157,10.19557 -22.68042,23.0835 -22.03589,20.55844 -0.0462,0.28076 -14.92646,2.00017 -22.70671,0.94966 -13.78768,10.15933 -17.93105,20.46234 -20.58557,24.27863 0.0808,0.35783 0.53887,2.58518 -7.56478,2.11286 -2.32636,-1.5843 -1.90327,-4.67999 2.23625,-9.72755 1.04162,-1.27013 6.60827,-1.34258 8.09278,-3.08856 3.11079,-3.65869 3.80385,-18.75709 3.80385,-18.75709 -0.41412,-0.12424 -7.29923,9.65898 -9.01115,12.26344 -2.9336,4.46308 -10.60472,1.80605 -12.58225,4.94303 -2.94712,4.67506 -3.96153,13.57582 -8.53683,12.9743 -2.75963,-1.20958 2.40586,-12.07514 1.51424,-11.95133 -8.42889,1.17041 -16.0509,20.35797 -16.79624,26.99491 -7.55095,1.82173 -12.7488,1.52477 -16.71072,0.61687 -2.77068,-7.82263 -1.4467,-15.96368 -0.25683,-18.158 -2.57427,-1.4031 -9.65726,6.84094 -11.33169,14.82975 -0.69666,3.32375 -6.80446,6.54513 -6.76539,16.30654 -10.95698,14.92235 -6.24922,26.61327 -5.81109,26.58553 4.53596,-6.00664 6.41777,-13.41769 13.01039,-16.64398 -1.85829,5.67255 -0.44037,7.51866 2.57988,10.95508 2.65414,-2.08933 -0.73884,-7.94485 7.38373,-11.87324 -1.54581,3.92801 0.24207,6.59443 1.83756,9.33387 2.23165,-3.2137 0.50319,-8.29937 7.11528,-10.72492 2.53311,-0.52844 5.6223,1.20866 8.4176,0.65122 3.34581,-0.66725 4.69518,-6.87978 7.85261,-6.11084 3.49923,0.85217 11.21428,5.46979 15.35468,6.97658 6.55027,2.38381 -3.35375,6.85318 -8.92017,11.23908 -3.37735,2.66111 -5.78049,4.73063 -14.83232,9.25901 -4.51037,2.25642 -5.83709,-4.56184 -5.07243,-7.92496 -2.54509,-2.46388 -5.48798,11.96497 -4.27954,14.45223 -5.83455,1.94321 -8.53927,-7.80658 -8.77307,-7.84513 -3.05218,-0.3626 -2.88218,9.24753 -2.17378,10.54625 1.28587,2.35738 -7.73944,1.29183 -9.29933,0.39794 -2.26749,-4.79078 -1.33739,-4.75853 -1.55539,-9.48907 -5.36712,4.48377 -6.32422,8.9543 -6.94855,10.07926 -0.73504,1.32441 -6.82811,23.68202 3.0686,30.76607 5.40171,3.86654 2.2523,-8.30959 10.88989,-15.70317 1.43719,-1.2302 -0.26843,12.636 2.19044,11.86666 0.28708,-2.07173 6.9523,-18.70598 13.00112,-16.66594 9.90626,3.34102 16.81823,-4.13926 26.39246,-7.02425 13.54618,-4.08184 23.46527,9.20034 24.67022,8.36665 5.19922,-3.5973 -9.38623,-17.11581 -6.85227,-18.03226 2.63335,-0.95238 4.84595,-1.32565 6.76376,-1.05116 4.18229,0.5986 18.48391,-4.65471 19.51139,-15.26161 1.12425,-11.60587 9.2145,-19.3321 10.40223,-18.78065 -0.53403,-0.17801 -8.4457,8.92281 -7.07751,21.29848 1.1593,10.48627 -11.61487,17.17489 -12.70218,17.95938 -2.13598,1.54109 1.14374,4.04624 3.03952,6.8329 4.27499,5.07564 15.15222,-3.12419 23.44453,-11.98786 6.71282,-7.17535 10.18273,-16.14064 10.18273,-16.14064 0,0 -1.31268,14.12317 -6.94203,21.81229 -7.93022,10.83188 -19.14443,20.26744 -19.71588,18.89682 4.09259,8.12618 3.1481,9.83149 3.1481,9.83149 13.27247,-2.31198 30.89593,-12.40902 40.02599,-25.86113 9.56662,-14.09533 10.37837,-31.58914 12.70338,-34.86285 -12.21992,-11.51562 -22.42358,-20.31754 -34.81337,-24.62778 1.68996,-2.83642 2.67691,-3.58193 10.28732,-1.77643 7.89659,1.8734 13.76542,-1.08023 18.71807,-5.26063 4.17497,-3.52397 7.89355,-12.78803 7.02109,-14.81023 -0.24057,0.53243 -4.17719,8.10197 -12.52646,9.24175 -6.10463,0.83335 -14.87216,-0.2915 -22.06417,-1.65266 -10.8855,-2.0602 -21.05057,8.14438 -21.79328,8.23485 5.2423,-10.75064 7.30078,-8.1181 11.37302,-12.22166 10.66861,0.92437 20.35881,-4.68553 19.64865,-5.19954 3.02282,-2.6565 12.4863,-25.7515 11.35551,-33.1967 z m -81.5708,54.50014 c 0.70832,0.0976 1.10498,0.37185 0.98392,0.89416 -0.38792,1.67369 -4.74745,4.68546 -6.94893,7.36902 -5.21816,3.05759 -5.89461,-0.83509 -6.42565,-1.53472 -0.057,-0.0751 -0.24891,-3.1428 3.18052,-4.72537 2.15649,-0.99516 7.0852,-2.29587 9.21014,-2.00309 z m -46.76115,10.76885 c 0.77091,0.17799 1.39602,0.71584 1.60746,1.32248 0.75023,2.15242 -3.36219,11.38409 -4.68872,9.29383 -0.81035,-1.27689 -1.89794,-7.15977 0.59859,-9.77897 0.79447,-0.83349 1.71177,-1.01533 2.48267,-0.83734 z"
       sodipodi:nodetypes="cccccsscsscscccscccccccssssscccsccssscsssssscsscscsccsccsacssccccsscssssssss" />
  </g>
</svg>
