<?xml version="1.0" encoding="UTF-8" standalone="no"?>
<!-- Created with Inkscape (http://www.inkscape.org/) -->

<svg
   width="512"
   height="512"
   viewBox="0 0 512 512"
   version="1.1"
   id="svg1"
   sodipodi:docname="BFang_VectorAngleConventer.svg"
   inkscape:version="1.3.2 (091e20e, 2023-11-25, custom)"
   inkscape:export-filename="BFang_VectorAngleConventer.png"
   inkscape:export-xdpi="24"
   inkscape:export-ydpi="24"
   xmlns:inkscape="http://www.inkscape.org/namespaces/inkscape"
   xmlns:sodipodi="http://sodipodi.sourceforge.net/DTD/sodipodi-0.dtd"
   xmlns="http://www.w3.org/2000/svg"
   xmlns:svg="http://www.w3.org/2000/svg">
  <sodipodi:namedview
     id="namedview1"
     pagecolor="#505050"
     bordercolor="#eeeeee"
     borderopacity="1"
     inkscape:showpageshadow="0"
     inkscape:pageopacity="0"
     inkscape:pagecheckerboard="0"
     inkscape:deskcolor="#505050"
     inkscape:document-units="px"
     inkscape:zoom="0.77636719"
     inkscape:cx="251.81384"
     inkscape:cy="294.3195"
     inkscape:window-width="1920"
     inkscape:window-height="991"
     inkscape:window-x="-9"
     inkscape:window-y="-9"
     inkscape:window-maximized="1"
     inkscape:current-layer="layer1" />
  <defs
     id="defs1" />
  <g
     inkscape:label="Layer 1"
     inkscape:groupmode="layer"
     id="layer1">
    <g
       id="path1"
       style="fill:#d74aa3;fill-opacity:1;stroke:#000000;stroke-opacity:1;stroke-width:21;stroke-dasharray:none;paint-order:markers stroke fill">
      <g
         id="g10"
         style="fill:#d74aa3;fill-opacity:1;stroke:#000000;stroke-opacity:1;stroke-width:21;stroke-dasharray:none;paint-order:markers stroke fill">
        <path
           id="path11"
           style="color:#000000;fill:#d74aa3;fill-rule:evenodd;fill-opacity:1;stroke:#000000;stroke-opacity:1;stroke-width:21;stroke-dasharray:none;paint-order:markers stroke fill"
           d="m 289.99122,22.022461 -81.96094,21.960937 -20,34.640625 54.64062,-14.640625 -205.533206,355.994142 17.320313,30 H 414.86231 l -40,40 h 40 l 60,-60 -60,-60 h -40 l 40,40 H 280.56739 l -97.4668,-162.81445 94.21094,-163.179691 14.64258,54.640621 20,-34.64062 z M 160.21192,286.80762 233.94825,409.97754 H 89.100585 Z" />
      </g>
    </g>
    <path
       id="path12"
       style="color:#000000;fill:#5d3fc6;fill-opacity:1;fill-rule:evenodd;stroke:#000000;stroke-width:15;stroke-linecap:round;stroke-linejoin:miter;stroke-miterlimit:17;stroke-dasharray:none;stroke-opacity:1;paint-order:markers stroke fill"
       d="m 312.72083,220.6025 -33.70118,38.97851 h 17.98829 c 1.30322,38.42436 33.13568,69.48243 71.86132,69.48243 19.77246,0 37.75342,-8.09521 50.79126,-21.13355 l -21.07993,-21.07993 c -7.56449,7.56497 -18.04545,12.21348 -29.71133,12.21348 -22.51093,0 -40.60401,-17.30967 -41.84961,-39.48243 H 346.422 Z"
       sodipodi:nodetypes="cccsccsccc" />
    <path
       id="path12-5"
       style="color:#000000;fill:#5d3fc6;fill-opacity:1;fill-rule:evenodd;stroke:#000000;stroke-width:15;stroke-linecap:round;stroke-linejoin:miter;stroke-miterlimit:17;stroke-dasharray:none;stroke-opacity:1;paint-order:markers stroke fill"
       d="m 425.35358,280.8663 33.70118,-38.97851 h -17.98829 c -1.30322,-38.42436 -33.13568,-69.48243 -71.86132,-69.48243 -19.77246,0 -37.75342,8.09521 -50.79126,21.13355 l 21.07993,21.07993 c 7.56449,-7.56497 18.04545,-12.21348 29.71133,-12.21348 22.51093,0 40.60401,17.30967 41.84961,39.48243 h -19.40235 z"
       sodipodi:nodetypes="cccsccsccc" />
  </g>
</svg>
