<?xml version="1.0" encoding="UTF-8" standalone="no"?>
<!-- Created with Inkscape (http://www.inkscape.org/) -->

<svg
   width="512"
   height="512"
   viewBox="0 0 512 512"
   version="1.1"
   id="svg1"
   sodipodi:docname="BFang_GeoCurveConvert.svg"
   inkscape:version="1.3.2 (091e20e, 2023-11-25, custom)"
   inkscape:export-filename="BFang_VectorAngleConventer.png"
   inkscape:export-xdpi="24"
   inkscape:export-ydpi="24"
   xmlns:inkscape="http://www.inkscape.org/namespaces/inkscape"
   xmlns:sodipodi="http://sodipodi.sourceforge.net/DTD/sodipodi-0.dtd"
   xmlns:xlink="http://www.w3.org/1999/xlink"
   xmlns="http://www.w3.org/2000/svg"
   xmlns:svg="http://www.w3.org/2000/svg">
  <sodipodi:namedview
     id="namedview1"
     pagecolor="#505050"
     bordercolor="#eeeeee"
     borderopacity="1"
     inkscape:showpageshadow="0"
     inkscape:pageopacity="0"
     inkscape:pagecheckerboard="0"
     inkscape:deskcolor="#505050"
     inkscape:document-units="px"
     inkscape:zoom="0.77636719"
     inkscape:cx="93.383647"
     inkscape:cy="177.10692"
     inkscape:window-width="1920"
     inkscape:window-height="991"
     inkscape:window-x="-9"
     inkscape:window-y="-9"
     inkscape:window-maximized="1"
     inkscape:current-layer="layer1" />
  <defs
     id="defs1">
    <linearGradient
       id="linearGradient22"
       inkscape:collect="always">
      <stop
         style="stop-color:#d45500;stop-opacity:1;"
         offset="0.43230221"
         id="stop22" />
      <stop
         style="stop-color:#8f2e00;stop-opacity:1;"
         offset="1"
         id="stop23" />
    </linearGradient>
    <radialGradient
       inkscape:collect="always"
       xlink:href="#linearGradient22"
       id="radialGradient23"
       cx="194.20001"
       cy="295.27975"
       fx="194.20001"
       fy="295.27975"
       r="219.72145"
       gradientTransform="matrix(0.29601829,-1.1033764,1.4220536,0.38151177,-222.39625,416.28724)"
       gradientUnits="userSpaceOnUse" />
  </defs>
  <g
     inkscape:label="Layer 1"
     inkscape:groupmode="layer"
     id="layer1">
    <path
       id="path12"
       style="color:#000000;fill:#5d3fc6;fill-opacity:1;fill-rule:evenodd;stroke:#000000;stroke-width:15;stroke-linecap:round;stroke-linejoin:miter;stroke-miterlimit:17;stroke-dasharray:none;stroke-opacity:1;paint-order:markers stroke fill"
       d="m 72.011289,86.359545 -33.70118,38.978515 h 17.98829 c 1.30322,38.42436 33.13568,69.48243 71.861321,69.48243 19.77246,0 37.75342,-8.09521 50.79126,-21.13355 l -21.07993,-21.07993 c -7.56449,7.56497 -18.04545,12.21348 -29.71133,12.21348 -22.51093,0 -40.604011,-17.30967 -41.849611,-39.48243 h 19.402351 z"
       sodipodi:nodetypes="cccsccsccc" />
    <path
       id="path12-5"
       style="color:#000000;fill:#5d3fc6;fill-opacity:1;fill-rule:evenodd;stroke:#000000;stroke-width:15;stroke-linecap:round;stroke-linejoin:miter;stroke-miterlimit:17;stroke-dasharray:none;stroke-opacity:1;paint-order:markers stroke fill"
       d="m 184.64404,146.62335 33.70118,-38.97851 h -17.98829 c -1.30322,-38.424365 -33.13568,-69.482435 -71.86132,-69.482435 -19.77246,0 -37.753421,8.09521 -50.791261,21.13355 l 21.07993,21.07993 c 7.564491,-7.56497 18.045451,-12.21348 29.711331,-12.21348 22.51093,0 40.60401,17.30967 41.84961,39.482435 h -19.40235 z"
       sodipodi:nodetypes="cccsccsccc" />
    <path
       style="color:#000000;fill:url(#radialGradient23);fill-opacity:1;fill-rule:evenodd;stroke:#000000;stroke-width:18.3562;stroke-linecap:square;stroke-miterlimit:17;stroke-dasharray:none;stroke-opacity:1;paint-order:markers stroke fill"
       d="m 279.62062,125.30501 c -28.58174,-1.72985 -47.71173,49.60386 -3.37335,52.28735 l 26.99225,1.63365 c 0,0 28.4846,1.94789 57.65294,15.19152 29.16832,13.24363 55.67976,33.68457 60.05725,78.08171 4.66863,47.34991 -11.19532,79.81501 -58.8806,102.48236 -47.68526,22.66734 -131.50359,31.05031 -254.10857,9.45258 0,0 -17.724514,-6.16772 -26.60792,-4.68748 -26.171386,4.36092 -39.965506,27.53615 -9.679251,51.54462 96.068131,29.75002 221.014141,29.65714 314.227761,-9.27969 64.52134,-30.67042 95.20538,-90.4699 88.89283,-154.49273 -6.36235,-64.52785 -51.32449,-102.54836 -90.9438,-120.53717 -39.61931,-17.98881 -77.23729,-20.04307 -77.23729,-20.04307 z"
       id="path1"
       sodipodi:nodetypes="sscssscssssscs" />
  </g>
</svg>
